{
  "header": {
    "PPQ": 128,
    "bpm": 148.000148000148,
    "name": "TripleOscillator"
  },
  "tempo": [
    {
      "absoluteTime": 0,
      "seconds": 0,
      "bpm": 148.000148000148
    },
    {
      "absoluteTime": 0,
      "seconds": 0,
      "bpm": 148.000148000148
    },
    {
      "absoluteTime": 70976,
      "seconds": 224.7970725000009,
      "bpm": 148.000148000148
    }
  ],
  "timeSignature": [],
  "startTime": 0,
  "duration": 224.7970725000009,
  "tracks": [
    {
      "startTime": 0,
      "duration": 0,
      "length": 0,
      "notes": [],
      "controlChanges": {},
      "id": 0,
      "name": "TripleOscillator"
    },
    {
      "startTime": 1.0135125,
      "duration": 224.7970725000009,
      "length": 512,
      "notes": [
        {
          "name": "G#4",
          "midi": 68,
          "time": 1.0135125,
          "velocity": 0.5039370078740157,
          "duration": 0.405405
        },
        {
          "name": "G#4",
          "midi": 68,
          "time": 1.4189175,
          "velocity": 0.5039370078740157,
          "duration": 0.405405
        },
        {
          "name": "G#4",
          "midi": 68,
          "time": 1.8243225,
          "velocity": 0.5039370078740157,
          "duration": 0.405405
        },
        {
          "name": "A#4",
          "midi": 70,
          "time": 2.6351325,
          "velocity": 0.5039370078740157,
          "duration": 0.405405
        },
        {
          "name": "A#4",
          "midi": 70,
          "time": 3.0405375,
          "velocity": 0.5039370078740157,
          "duration": 0.405405
        },
        {
          "name": "A#4",
          "midi": 70,
          "time": 3.4459425,
          "velocity": 0.5039370078740157,
          "duration": 0.405405
        },
        {
          "name": "F#4",
          "midi": 66,
          "time": 4.2567525,
          "velocity": 0.5039370078740157,
          "duration": 0.405405
        },
        {
          "name": "F#4",
          "midi": 66,
          "time": 4.6621575,
          "velocity": 0.5039370078740157,
          "duration": 0.405405
        },
        {
          "name": "F#4",
          "midi": 66,
          "time": 5.0675625,
          "velocity": 0.5039370078740157,
          "duration": 0.405405
        },
        {
          "name": "E4",
          "midi": 64,
          "time": 5.8783725,
          "velocity": 0.5039370078740157,
          "duration": 0.405405
        },
        {
          "name": "E4",
          "midi": 64,
          "time": 6.2837775,
          "velocity": 0.5039370078740157,
          "duration": 0.405405
        },
        {
          "name": "E4",
          "midi": 64,
          "time": 7.0945875,
          "velocity": 0.5039370078740157,
          "duration": 0.405405
        },
        {
          "name": "F#4",
          "midi": 66,
          "time": 7.4999925,
          "velocity": 0.5039370078740157,
          "duration": 0.405405
        },
        {
          "name": "G#4",
          "midi": 68,
          "time": 8.310802500000001,
          "velocity": 0.5039370078740157,
          "duration": 0.405405
        },
        {
          "name": "A#4",
          "midi": 70,
          "time": 9.121612500000001,
          "velocity": 0.5039370078740157,
          "duration": 0.405405
        },
        {
          "name": "G#4",
          "midi": 68,
          "time": 9.932422500000001,
          "velocity": 0.5039370078740157,
          "duration": 0.405405
        },
        {
          "name": "F#4",
          "midi": 66,
          "time": 10.743232500000001,
          "velocity": 0.5039370078740157,
          "duration": 0.405405
        },
        {
          "name": "E4",
          "midi": 64,
          "time": 11.148637500000001,
          "velocity": 0.5039370078740157,
          "duration": 0.405405
        },
        {
          "name": "F#4",
          "midi": 66,
          "time": 11.959447500000001,
          "velocity": 0.5039370078740157,
          "duration": 0.405405
        },
        {
          "name": "G#4",
          "midi": 68,
          "time": 13.175662500000001,
          "velocity": 0.5039370078740157,
          "duration": 0.405405
        },
        {
          "name": "A#4",
          "midi": 70,
          "time": 13.986472500000001,
          "velocity": 0.5039370078740157,
          "duration": 0.405405
        },
        {
          "name": "G#4",
          "midi": 68,
          "time": 14.797282500000001,
          "velocity": 0.5039370078740157,
          "duration": 0.405405
        },
        {
          "name": "F#4",
          "midi": 66,
          "time": 15.608092500000001,
          "velocity": 0.5039370078740157,
          "duration": 0.40540499999999824
        },
        {
          "name": "E4",
          "midi": 64,
          "time": 16.4189025,
          "velocity": 0.5039370078740157,
          "duration": 0.4054050000000018
        },
        {
          "name": "F#4",
          "midi": 66,
          "time": 17.229712500000005,
          "velocity": 0.5039370078740157,
          "duration": 0.4054050000000018
        },
        {
          "name": "G#4",
          "midi": 68,
          "time": 18.04052250000001,
          "velocity": 0.5039370078740157,
          "duration": 0.4054050000000018
        },
        {
          "name": "A#4",
          "midi": 70,
          "time": 18.851332500000012,
          "velocity": 0.5039370078740157,
          "duration": 0.4054050000000018
        },
        {
          "name": "E4",
          "midi": 64,
          "time": 20.878357500000014,
          "velocity": 0.5039370078740157,
          "duration": 0.4054050000000018
        },
        {
          "name": "F#4",
          "midi": 66,
          "time": 21.283762500000016,
          "velocity": 0.5039370078740157,
          "duration": 0.4054050000000018
        },
        {
          "name": "G#4",
          "midi": 68,
          "time": 21.689167500000018,
          "velocity": 0.5039370078740157,
          "duration": 0.4054050000000018
        },
        {
          "name": "A#4",
          "midi": 70,
          "time": 22.09457250000002,
          "velocity": 0.5039370078740157,
          "duration": 0.4054050000000018
        },
        {
          "name": "G#4",
          "midi": 68,
          "time": 22.49997750000002,
          "velocity": 0.5039370078740157,
          "duration": 0.4054050000000018
        },
        {
          "name": "G#4",
          "midi": 68,
          "time": 22.905382500000023,
          "velocity": 0.5039370078740157,
          "duration": 0.4054050000000018
        },
        {
          "name": "G#4",
          "midi": 68,
          "time": 23.310787500000025,
          "velocity": 0.5039370078740157,
          "duration": 0.4054050000000018
        },
        {
          "name": "E4",
          "midi": 64,
          "time": 24.12159750000003,
          "velocity": 0.5039370078740157,
          "duration": 0.4054050000000018
        },
        {
          "name": "F#4",
          "midi": 66,
          "time": 24.52700250000003,
          "velocity": 0.5039370078740157,
          "duration": 0.4054050000000018
        },
        {
          "name": "G#4",
          "midi": 68,
          "time": 24.932407500000032,
          "velocity": 0.5039370078740157,
          "duration": 0.4054050000000018
        },
        {
          "name": "A#4",
          "midi": 70,
          "time": 25.337812500000034,
          "velocity": 0.5039370078740157,
          "duration": 0.4054050000000018
        },
        {
          "name": "F#4",
          "midi": 66,
          "time": 25.743217500000036,
          "velocity": 0.5039370078740157,
          "duration": 0.4054050000000018
        },
        {
          "name": "G#4",
          "midi": 68,
          "time": 26.148622500000037,
          "velocity": 0.5039370078740157,
          "duration": 0.4054050000000018
        },
        {
          "name": "G#4",
          "midi": 68,
          "time": 26.55402750000004,
          "velocity": 0.5039370078740157,
          "duration": 0.4054050000000018
        },
        {
          "name": "E4",
          "midi": 64,
          "time": 27.364837500000043,
          "velocity": 0.5039370078740157,
          "duration": 0.4054050000000018
        },
        {
          "name": "F#4",
          "midi": 66,
          "time": 27.770242500000045,
          "velocity": 0.5039370078740157,
          "duration": 0.4054050000000018
        },
        {
          "name": "A#4",
          "midi": 70,
          "time": 28.175647500000046,
          "velocity": 0.5039370078740157,
          "duration": 0.4054050000000018
        },
        {
          "name": "G#4",
          "midi": 68,
          "time": 28.581052500000048,
          "velocity": 0.5039370078740157,
          "duration": 0.4054050000000018
        },
        {
          "name": "F#4",
          "midi": 66,
          "time": 28.98645750000005,
          "velocity": 0.5039370078740157,
          "duration": 0.4054050000000018
        },
        {
          "name": "G#4",
          "midi": 68,
          "time": 29.39186250000005,
          "velocity": 0.5039370078740157,
          "duration": 0.4054050000000018
        },
        {
          "name": "F#4",
          "midi": 66,
          "time": 29.797267500000054,
          "velocity": 0.5039370078740157,
          "duration": 0.4054050000000018
        },
        {
          "name": "F#4",
          "midi": 66,
          "time": 30.202672500000055,
          "velocity": 0.5039370078740157,
          "duration": 0.4054050000000018
        },
        {
          "name": "E4",
          "midi": 64,
          "time": 31.824292500000055,
          "velocity": 0.5039370078740157,
          "duration": 0.4054050000000018
        },
        {
          "name": "G#4",
          "midi": 68,
          "time": 32.22969750000006,
          "velocity": 0.5039370078740157,
          "duration": 0.4054050000000018
        },
        {
          "name": "F#4",
          "midi": 66,
          "time": 32.63510250000006,
          "velocity": 0.5039370078740157,
          "duration": 0.4054050000000018
        },
        {
          "name": "E4",
          "midi": 64,
          "time": 33.44591250000006,
          "velocity": 0.5039370078740157,
          "duration": 0.4054050000000018
        },
        {
          "name": "F#4",
          "midi": 66,
          "time": 33.851317500000064,
          "velocity": 0.5039370078740157,
          "duration": 0.4054050000000018
        },
        {
          "name": "G#4",
          "midi": 68,
          "time": 34.256722500000066,
          "velocity": 0.5039370078740157,
          "duration": 0.4054050000000018
        },
        {
          "name": "A#4",
          "midi": 70,
          "time": 34.66212750000007,
          "velocity": 0.5039370078740157,
          "duration": 0.4054050000000018
        },
        {
          "name": "A#4",
          "midi": 70,
          "time": 35.06753250000007,
          "velocity": 0.5039370078740157,
          "duration": 0.4054050000000018
        },
        {
          "name": "F#4",
          "midi": 66,
          "time": 35.47293750000007,
          "velocity": 0.5039370078740157,
          "duration": 0.4054050000000018
        },
        {
          "name": "G#4",
          "midi": 68,
          "time": 35.87834250000007,
          "velocity": 0.5039370078740157,
          "duration": 0.4054050000000018
        },
        {
          "name": "G#4",
          "midi": 68,
          "time": 36.283747500000075,
          "velocity": 0.5039370078740157,
          "duration": 0.4054050000000018
        },
        {
          "name": "E4",
          "midi": 64,
          "time": 37.09455750000008,
          "velocity": 0.5039370078740157,
          "duration": 0.4054050000000018
        },
        {
          "name": "F#4",
          "midi": 66,
          "time": 37.49996250000008,
          "velocity": 0.5039370078740157,
          "duration": 0.4054050000000018
        },
        {
          "name": "A#4",
          "midi": 70,
          "time": 37.90536750000008,
          "velocity": 0.5039370078740157,
          "duration": 0.4054050000000018
        },
        {
          "name": "G#4",
          "midi": 68,
          "time": 38.310772500000084,
          "velocity": 0.5039370078740157,
          "duration": 0.4054050000000018
        },
        {
          "name": "F#4",
          "midi": 66,
          "time": 38.716177500000086,
          "velocity": 0.5039370078740157,
          "duration": 0.4054050000000018
        },
        {
          "name": "F#4",
          "midi": 66,
          "time": 39.12158250000009,
          "velocity": 0.5039370078740157,
          "duration": 0.4054050000000018
        },
        {
          "name": "G#4",
          "midi": 68,
          "time": 39.93239250000009,
          "velocity": 0.5039370078740157,
          "duration": 0.4054050000000018
        },
        {
          "name": "E4",
          "midi": 64,
          "time": 40.743202500000095,
          "velocity": 0.5039370078740157,
          "duration": 0.4054050000000018
        },
        {
          "name": "F#4",
          "midi": 66,
          "time": 41.1486075000001,
          "velocity": 0.5039370078740157,
          "duration": 0.4054050000000018
        },
        {
          "name": "A#4",
          "midi": 70,
          "time": 41.5540125000001,
          "velocity": 0.5039370078740157,
          "duration": 0.4054050000000018
        },
        {
          "name": "F#4",
          "midi": 66,
          "time": 41.9594175000001,
          "velocity": 0.5039370078740157,
          "duration": 0.4054050000000018
        },
        {
          "name": "G#4",
          "midi": 68,
          "time": 42.3648225000001,
          "velocity": 0.5039370078740157,
          "duration": 0.4054050000000018
        },
        {
          "name": "F#4",
          "midi": 66,
          "time": 42.770227500000104,
          "velocity": 0.5039370078740157,
          "duration": 0.4054050000000018
        },
        {
          "name": "F#4",
          "midi": 66,
          "time": 43.175632500000106,
          "velocity": 0.5039370078740157,
          "duration": 0.4054050000000018
        },
        {
          "name": "G#4",
          "midi": 68,
          "time": 43.58103750000011,
          "velocity": 0.5039370078740157,
          "duration": 0.4054050000000018
        },
        {
          "name": "E4",
          "midi": 64,
          "time": 44.39184750000011,
          "velocity": 0.5039370078740157,
          "duration": 0.4054050000000018
        },
        {
          "name": "F#4",
          "midi": 66,
          "time": 47.22968250000011,
          "velocity": 0.5039370078740157,
          "duration": 0.4054050000000018
        },
        {
          "name": "F#4",
          "midi": 66,
          "time": 47.63508750000011,
          "velocity": 0.5039370078740157,
          "duration": 0.4054050000000018
        },
        {
          "name": "G#4",
          "midi": 68,
          "time": 48.04049250000011,
          "velocity": 0.5039370078740157,
          "duration": 0.4054050000000018
        },
        {
          "name": "G#4",
          "midi": 68,
          "time": 48.04049250000011,
          "velocity": 0.5039370078740157,
          "duration": 0.4054050000000018
        },
        {
          "name": "F#4",
          "midi": 66,
          "time": 48.445897500000115,
          "velocity": 0.5039370078740157,
          "duration": 0.4054050000000018
        },
        {
          "name": "F#4",
          "midi": 66,
          "time": 48.851302500000116,
          "velocity": 0.5039370078740157,
          "duration": 0.4054050000000018
        },
        {
          "name": "G#4",
          "midi": 68,
          "time": 49.25670750000012,
          "velocity": 0.5039370078740157,
          "duration": 0.4054050000000018
        },
        {
          "name": "G#4",
          "midi": 68,
          "time": 49.25670750000012,
          "velocity": 0.5039370078740157,
          "duration": 0.4054050000000018
        },
        {
          "name": "G#4",
          "midi": 68,
          "time": 49.66211250000012,
          "velocity": 0.5039370078740157,
          "duration": 0.4054050000000018
        },
        {
          "name": "G#4",
          "midi": 68,
          "time": 50.06751750000012,
          "velocity": 0.5039370078740157,
          "duration": 0.4054050000000018
        },
        {
          "name": "F#4",
          "midi": 66,
          "time": 50.472922500000124,
          "velocity": 0.5039370078740157,
          "duration": 0.4054050000000018
        },
        {
          "name": "G#4",
          "midi": 68,
          "time": 50.878327500000125,
          "velocity": 0.5039370078740157,
          "duration": 0.4054050000000018
        },
        {
          "name": "G#4",
          "midi": 68,
          "time": 50.878327500000125,
          "velocity": 0.5039370078740157,
          "duration": 0.4054050000000018
        },
        {
          "name": "F#4",
          "midi": 66,
          "time": 51.28373250000013,
          "velocity": 0.5039370078740157,
          "duration": 0.4054050000000018
        },
        {
          "name": "G#4",
          "midi": 68,
          "time": 51.68913750000013,
          "velocity": 0.5039370078740157,
          "duration": 0.4054050000000018
        },
        {
          "name": "G#4",
          "midi": 68,
          "time": 51.68913750000013,
          "velocity": 0.5039370078740157,
          "duration": 0.4054050000000018
        },
        {
          "name": "F#4",
          "midi": 66,
          "time": 52.09454250000013,
          "velocity": 0.5039370078740157,
          "duration": 0.4054050000000018
        },
        {
          "name": "F#4",
          "midi": 66,
          "time": 52.49994750000013,
          "velocity": 0.5039370078740157,
          "duration": 0.4054050000000018
        },
        {
          "name": "G#4",
          "midi": 68,
          "time": 52.905352500000134,
          "velocity": 0.5039370078740157,
          "duration": 0.4054050000000018
        },
        {
          "name": "G#4",
          "midi": 68,
          "time": 53.71616250000014,
          "velocity": 0.5039370078740157,
          "duration": 0.4054050000000018
        },
        {
          "name": "F#4",
          "midi": 66,
          "time": 54.12156750000014,
          "velocity": 0.5039370078740157,
          "duration": 0.4054050000000018
        },
        {
          "name": "G#4",
          "midi": 68,
          "time": 54.52697250000014,
          "velocity": 0.5039370078740157,
          "duration": 0.4054050000000018
        },
        {
          "name": "G#4",
          "midi": 68,
          "time": 54.52697250000014,
          "velocity": 0.5039370078740157,
          "duration": 0.4054050000000018
        },
        {
          "name": "F#4",
          "midi": 66,
          "time": 54.93237750000014,
          "velocity": 0.5039370078740157,
          "duration": 0.4054050000000018
        },
        {
          "name": "F#4",
          "midi": 66,
          "time": 55.337782500000145,
          "velocity": 0.5039370078740157,
          "duration": 0.4054050000000018
        },
        {
          "name": "A#4",
          "midi": 70,
          "time": 55.74318750000015,
          "velocity": 0.5039370078740157,
          "duration": 0.4054050000000018
        },
        {
          "name": "G#4",
          "midi": 68,
          "time": 56.14859250000015,
          "velocity": 0.5039370078740157,
          "duration": 0.4054050000000018
        },
        {
          "name": "F#4",
          "midi": 66,
          "time": 56.95940250000015,
          "velocity": 0.5039370078740157,
          "duration": 0.4054050000000018
        },
        {
          "name": "G#4",
          "midi": 68,
          "time": 57.364807500000154,
          "velocity": 0.5039370078740157,
          "duration": 0.4054050000000018
        },
        {
          "name": "F#4",
          "midi": 66,
          "time": 57.770212500000156,
          "velocity": 0.5039370078740157,
          "duration": 0.4054050000000018
        },
        {
          "name": "F#4",
          "midi": 66,
          "time": 58.17561750000016,
          "velocity": 0.5039370078740157,
          "duration": 0.4054050000000018
        },
        {
          "name": "G#4",
          "midi": 68,
          "time": 58.58102250000016,
          "velocity": 0.5039370078740157,
          "duration": 0.4054050000000018
        },
        {
          "name": "G#4",
          "midi": 68,
          "time": 58.98642750000016,
          "velocity": 0.5039370078740157,
          "duration": 0.4054050000000018
        },
        {
          "name": "A#4",
          "midi": 70,
          "time": 59.39183250000016,
          "velocity": 0.5039370078740157,
          "duration": 0.4054050000000018
        },
        {
          "name": "A#4",
          "midi": 70,
          "time": 59.797237500000165,
          "velocity": 0.5039370078740157,
          "duration": 0.4054050000000018
        },
        {
          "name": "G#4",
          "midi": 68,
          "time": 60.20264250000017,
          "velocity": 0.5039370078740157,
          "duration": 0.4054050000000018
        },
        {
          "name": "G#4",
          "midi": 68,
          "time": 60.60804750000017,
          "velocity": 0.5039370078740157,
          "duration": 0.4054050000000018
        },
        {
          "name": "A#4",
          "midi": 70,
          "time": 61.01345250000017,
          "velocity": 0.5039370078740157,
          "duration": 0.4054050000000018
        },
        {
          "name": "A#4",
          "midi": 70,
          "time": 61.41885750000017,
          "velocity": 0.5039370078740157,
          "duration": 0.4054050000000018
        },
        {
          "name": "G#4",
          "midi": 68,
          "time": 61.824262500000174,
          "velocity": 0.5039370078740157,
          "duration": 0.4054050000000018
        },
        {
          "name": "G#4",
          "midi": 68,
          "time": 62.229667500000176,
          "velocity": 0.5039370078740157,
          "duration": 0.4054050000000018
        },
        {
          "name": "F#4",
          "midi": 66,
          "time": 62.63507250000018,
          "velocity": 0.5039370078740157,
          "duration": 0.4054050000000018
        },
        {
          "name": "G#4",
          "midi": 68,
          "time": 63.04047750000018,
          "velocity": 0.5039370078740157,
          "duration": 0.4054050000000018
        },
        {
          "name": "E4",
          "midi": 64,
          "time": 63.44588250000018,
          "velocity": 0.5039370078740157,
          "duration": 0.4054050000000018
        },
        {
          "name": "F#4",
          "midi": 66,
          "time": 63.85128750000018,
          "velocity": 0.5039370078740157,
          "duration": 0.4054050000000018
        },
        {
          "name": "G#4",
          "midi": 68,
          "time": 64.05399000000018,
          "velocity": 0.5039370078740157,
          "duration": 0.4054050000000018
        },
        {
          "name": "E4",
          "midi": 64,
          "time": 64.25669250000018,
          "velocity": 0.5039370078740157,
          "duration": 0.4054050000000018
        },
        {
          "name": "G#4",
          "midi": 68,
          "time": 64.66209750000019,
          "velocity": 0.5039370078740157,
          "duration": 0.4054050000000018
        },
        {
          "name": "A#4",
          "midi": 70,
          "time": 65.06750250000019,
          "velocity": 0.5039370078740157,
          "duration": 0.4054050000000018
        },
        {
          "name": "F#4",
          "midi": 66,
          "time": 65.47290750000019,
          "velocity": 0.5039370078740157,
          "duration": 0.4054050000000018
        },
        {
          "name": "A#4",
          "midi": 70,
          "time": 65.87831250000019,
          "velocity": 0.5039370078740157,
          "duration": 0.4054050000000018
        },
        {
          "name": "A#4",
          "midi": 70,
          "time": 66.2837175000002,
          "velocity": 0.5039370078740157,
          "duration": 0.4054050000000018
        },
        {
          "name": "G#4",
          "midi": 68,
          "time": 66.6891225000002,
          "velocity": 0.5039370078740157,
          "duration": 0.4054050000000018
        },
        {
          "name": "A#4",
          "midi": 70,
          "time": 67.0945275000002,
          "velocity": 0.5039370078740157,
          "duration": 0.4054050000000018
        },
        {
          "name": "A#4",
          "midi": 70,
          "time": 67.4999325000002,
          "velocity": 0.5039370078740157,
          "duration": 0.4054050000000018
        },
        {
          "name": "G#4",
          "midi": 68,
          "time": 67.9053375000002,
          "velocity": 0.5039370078740157,
          "duration": 0.4054050000000018
        },
        {
          "name": "G#4",
          "midi": 68,
          "time": 68.3107425000002,
          "velocity": 0.5039370078740157,
          "duration": 0.4054050000000018
        },
        {
          "name": "G#4",
          "midi": 68,
          "time": 68.7161475000002,
          "velocity": 0.5039370078740157,
          "duration": 0.4054050000000018
        },
        {
          "name": "F#4",
          "midi": 66,
          "time": 69.1215525000002,
          "velocity": 0.5039370078740157,
          "duration": 0.4054050000000018
        },
        {
          "name": "F#4",
          "midi": 66,
          "time": 69.1215525000002,
          "velocity": 0.5039370078740157,
          "duration": 0.4054050000000018
        },
        {
          "name": "F#4",
          "midi": 66,
          "time": 69.52695750000021,
          "velocity": 0.5039370078740157,
          "duration": 0.4054050000000018
        },
        {
          "name": "E4",
          "midi": 64,
          "time": 69.93236250000021,
          "velocity": 0.5039370078740157,
          "duration": 0.4054050000000018
        },
        {
          "name": "E4",
          "midi": 64,
          "time": 70.33776750000021,
          "velocity": 0.5039370078740157,
          "duration": 0.4054050000000018
        },
        {
          "name": "E4",
          "midi": 64,
          "time": 70.74317250000021,
          "velocity": 0.5039370078740157,
          "duration": 0.4054050000000018
        },
        {
          "name": "G#4",
          "midi": 68,
          "time": 71.14857750000021,
          "velocity": 0.5039370078740157,
          "duration": 0.4054050000000018
        },
        {
          "name": "F#4",
          "midi": 66,
          "time": 71.55398250000022,
          "velocity": 0.5039370078740157,
          "duration": 0.4054050000000018
        },
        {
          "name": "A#4",
          "midi": 70,
          "time": 72.36479250000022,
          "velocity": 0.5039370078740157,
          "duration": 0.4054050000000018
        },
        {
          "name": "A#4",
          "midi": 70,
          "time": 72.36479250000022,
          "velocity": 0.5039370078740157,
          "duration": 0.4054050000000018
        },
        {
          "name": "A#4",
          "midi": 70,
          "time": 72.77019750000022,
          "velocity": 0.5039370078740157,
          "duration": 0.4054050000000018
        },
        {
          "name": "A#4",
          "midi": 70,
          "time": 73.17560250000022,
          "velocity": 0.5039370078740157,
          "duration": 0.4054050000000018
        },
        {
          "name": "G#4",
          "midi": 68,
          "time": 73.58100750000023,
          "velocity": 0.5039370078740157,
          "duration": 0.4054050000000018
        },
        {
          "name": "G#4",
          "midi": 68,
          "time": 73.98641250000023,
          "velocity": 0.5039370078740157,
          "duration": 0.4054050000000018
        },
        {
          "name": "G#4",
          "midi": 68,
          "time": 73.98641250000023,
          "velocity": 0.5039370078740157,
          "duration": 0.4054050000000018
        },
        {
          "name": "G#4",
          "midi": 68,
          "time": 74.39181750000023,
          "velocity": 0.5039370078740157,
          "duration": 0.4054050000000018
        },
        {
          "name": "G#4",
          "midi": 68,
          "time": 74.79722250000023,
          "velocity": 0.5039370078740157,
          "duration": 0.4054050000000018
        },
        {
          "name": "F#4",
          "midi": 66,
          "time": 75.20262750000023,
          "velocity": 0.5039370078740157,
          "duration": 0.4054050000000018
        },
        {
          "name": "E4",
          "midi": 64,
          "time": 75.60803250000023,
          "velocity": 0.5039370078740157,
          "duration": 0.4054050000000018
        },
        {
          "name": "F#4",
          "midi": 66,
          "time": 76.01343750000024,
          "velocity": 0.5039370078740157,
          "duration": 0.4054050000000018
        },
        {
          "name": "G#4",
          "midi": 68,
          "time": 76.41884250000024,
          "velocity": 0.5039370078740157,
          "duration": 0.4054050000000018
        },
        {
          "name": "F#4",
          "midi": 66,
          "time": 76.82424750000024,
          "velocity": 0.5039370078740157,
          "duration": 0.4054050000000018
        },
        {
          "name": "G#4",
          "midi": 68,
          "time": 78.85127250000025,
          "velocity": 0.5039370078740157,
          "duration": 0.4054050000000018
        },
        {
          "name": "G#4",
          "midi": 68,
          "time": 78.85127250000025,
          "velocity": 0.5039370078740157,
          "duration": 0.4054050000000018
        },
        {
          "name": "G#4",
          "midi": 68,
          "time": 79.25667750000025,
          "velocity": 0.5039370078740157,
          "duration": 0.4054050000000018
        },
        {
          "name": "G#4",
          "midi": 68,
          "time": 79.66208250000025,
          "velocity": 0.5039370078740157,
          "duration": 0.4054050000000018
        },
        {
          "name": "A#4",
          "midi": 70,
          "time": 80.06748750000025,
          "velocity": 0.5039370078740157,
          "duration": 0.4054050000000018
        },
        {
          "name": "F#4",
          "midi": 66,
          "time": 80.47289250000026,
          "velocity": 0.5039370078740157,
          "duration": 0.4054050000000018
        },
        {
          "name": "F#4",
          "midi": 66,
          "time": 80.47289250000026,
          "velocity": 0.5039370078740157,
          "duration": 0.4054050000000018
        },
        {
          "name": "F#4",
          "midi": 66,
          "time": 80.87829750000026,
          "velocity": 0.5039370078740157,
          "duration": 0.4054050000000018
        },
        {
          "name": "F#4",
          "midi": 66,
          "time": 81.28370250000026,
          "velocity": 0.5039370078740157,
          "duration": 0.4054050000000018
        },
        {
          "name": "G#4",
          "midi": 68,
          "time": 81.68910750000026,
          "velocity": 0.5039370078740157,
          "duration": 0.4054050000000018
        },
        {
          "name": "E4",
          "midi": 64,
          "time": 82.09451250000026,
          "velocity": 0.5039370078740157,
          "duration": 0.4054050000000018
        },
        {
          "name": "F#4",
          "midi": 66,
          "time": 82.49991750000027,
          "velocity": 0.5039370078740157,
          "duration": 0.4054050000000018
        },
        {
          "name": "F#4",
          "midi": 66,
          "time": 82.49991750000027,
          "velocity": 0.5039370078740157,
          "duration": 0.4054050000000018
        },
        {
          "name": "F#4",
          "midi": 66,
          "time": 82.90532250000027,
          "velocity": 0.5039370078740157,
          "duration": 0.4054050000000018
        },
        {
          "name": "G#4",
          "midi": 68,
          "time": 83.31072750000027,
          "velocity": 0.5039370078740157,
          "duration": 0.4054050000000018
        },
        {
          "name": "F#4",
          "midi": 66,
          "time": 83.71613250000027,
          "velocity": 0.5039370078740157,
          "duration": 0.4054050000000018
        },
        {
          "name": "E4",
          "midi": 64,
          "time": 84.12153750000027,
          "velocity": 0.5039370078740157,
          "duration": 0.4054050000000018
        },
        {
          "name": "A#4",
          "midi": 70,
          "time": 85.33775250000028,
          "velocity": 0.5039370078740157,
          "duration": 0.4054050000000018
        },
        {
          "name": "E4",
          "midi": 64,
          "time": 86.95937250000028,
          "velocity": 0.5039370078740157,
          "duration": 0.4054050000000018
        },
        {
          "name": "F#4",
          "midi": 66,
          "time": 87.77018250000029,
          "velocity": 0.5039370078740157,
          "duration": 0.4054050000000018
        },
        {
          "name": "G#4",
          "midi": 68,
          "time": 88.58099250000029,
          "velocity": 0.5039370078740157,
          "duration": 0.4054050000000018
        },
        {
          "name": "A#4",
          "midi": 70,
          "time": 89.3918025000003,
          "velocity": 0.5039370078740157,
          "duration": 0.4054050000000018
        },
        {
          "name": "G#4",
          "midi": 68,
          "time": 90.2026125000003,
          "velocity": 0.5039370078740157,
          "duration": 0.4054050000000018
        },
        {
          "name": "F#4",
          "midi": 66,
          "time": 91.0134225000003,
          "velocity": 0.5039370078740157,
          "duration": 0.4054050000000018
        },
        {
          "name": "E4",
          "midi": 64,
          "time": 91.8242325000003,
          "velocity": 0.5039370078740157,
          "duration": 0.4054050000000018
        },
        {
          "name": "F#4",
          "midi": 66,
          "time": 92.63504250000031,
          "velocity": 0.5039370078740157,
          "duration": 0.4054050000000018
        },
        {
          "name": "G#4",
          "midi": 68,
          "time": 93.44585250000031,
          "velocity": 0.5039370078740157,
          "duration": 0.4054050000000018
        },
        {
          "name": "A#4",
          "midi": 70,
          "time": 93.85125750000032,
          "velocity": 0.5039370078740157,
          "duration": 0.4054050000000018
        },
        {
          "name": "G#4",
          "midi": 68,
          "time": 94.66206750000032,
          "velocity": 0.5039370078740157,
          "duration": 0.4054050000000018
        },
        {
          "name": "F#4",
          "midi": 66,
          "time": 95.47287750000032,
          "velocity": 0.5039370078740157,
          "duration": 0.4054050000000018
        },
        {
          "name": "E4",
          "midi": 64,
          "time": 96.28368750000033,
          "velocity": 0.5039370078740157,
          "duration": 0.4054050000000018
        },
        {
          "name": "F#4",
          "midi": 66,
          "time": 97.09449750000033,
          "velocity": 0.5039370078740157,
          "duration": 0.4054050000000018
        },
        {
          "name": "G#4",
          "midi": 68,
          "time": 98.31071250000034,
          "velocity": 0.5039370078740157,
          "duration": 0.4054050000000018
        },
        {
          "name": "A#4",
          "midi": 70,
          "time": 98.71611750000034,
          "velocity": 0.5039370078740157,
          "duration": 0.4054050000000018
        },
        {
          "name": "E4",
          "midi": 64,
          "time": 99.93233250000034,
          "velocity": 0.5039370078740157,
          "duration": 0.4054050000000018
        },
        {
          "name": "F#4",
          "midi": 66,
          "time": 100.74314250000035,
          "velocity": 0.5039370078740157,
          "duration": 0.4054050000000018
        },
        {
          "name": "G#4",
          "midi": 68,
          "time": 101.14854750000035,
          "velocity": 0.5039370078740157,
          "duration": 0.4054050000000018
        },
        {
          "name": "G#4",
          "midi": 68,
          "time": 101.55395250000035,
          "velocity": 0.5039370078740157,
          "duration": 0.4054050000000018
        },
        {
          "name": "A#4",
          "midi": 70,
          "time": 101.95935750000035,
          "velocity": 0.5039370078740157,
          "duration": 0.4054050000000018
        },
        {
          "name": "A#4",
          "midi": 70,
          "time": 101.95935750000035,
          "velocity": 0.5039370078740157,
          "duration": 0.4054050000000018
        },
        {
          "name": "G#4",
          "midi": 68,
          "time": 102.36476250000035,
          "velocity": 0.5039370078740157,
          "duration": 0.4054050000000018
        },
        {
          "name": "G#4",
          "midi": 68,
          "time": 102.77016750000035,
          "velocity": 0.5039370078740157,
          "duration": 0.4054050000000018
        },
        {
          "name": "F#4",
          "midi": 66,
          "time": 103.17557250000036,
          "velocity": 0.5039370078740157,
          "duration": 0.4054050000000018
        },
        {
          "name": "F#4",
          "midi": 66,
          "time": 103.58097750000036,
          "velocity": 0.5039370078740157,
          "duration": 0.4054050000000018
        },
        {
          "name": "G#4",
          "midi": 68,
          "time": 103.98638250000036,
          "velocity": 0.5039370078740157,
          "duration": 0.4054050000000018
        },
        {
          "name": "G#4",
          "midi": 68,
          "time": 103.98638250000036,
          "velocity": 0.5039370078740157,
          "duration": 0.4054050000000018
        },
        {
          "name": "F#4",
          "midi": 66,
          "time": 104.39178750000036,
          "velocity": 0.5039370078740157,
          "duration": 0.4054050000000018
        },
        {
          "name": "F#4",
          "midi": 66,
          "time": 104.79719250000036,
          "velocity": 0.5039370078740157,
          "duration": 0.4054050000000018
        },
        {
          "name": "E4",
          "midi": 64,
          "time": 105.20259750000037,
          "velocity": 0.5039370078740157,
          "duration": 0.4054050000000018
        },
        {
          "name": "E4",
          "midi": 64,
          "time": 105.60800250000037,
          "velocity": 0.5039370078740157,
          "duration": 0.4054050000000018
        },
        {
          "name": "E4",
          "midi": 64,
          "time": 106.01340750000037,
          "velocity": 0.5039370078740157,
          "duration": 0.4054050000000018
        },
        {
          "name": "F#4",
          "midi": 66,
          "time": 106.41881250000037,
          "velocity": 0.5039370078740157,
          "duration": 0.4054050000000018
        },
        {
          "name": "F#4",
          "midi": 66,
          "time": 107.22962250000037,
          "velocity": 0.5039370078740157,
          "duration": 0.4054050000000018
        },
        {
          "name": "G#4",
          "midi": 68,
          "time": 107.63502750000038,
          "velocity": 0.5039370078740157,
          "duration": 0.4054050000000018
        },
        {
          "name": "G#4",
          "midi": 68,
          "time": 108.04043250000038,
          "velocity": 0.5039370078740157,
          "duration": 0.4054050000000018
        },
        {
          "name": "A#4",
          "midi": 70,
          "time": 108.44583750000038,
          "velocity": 0.5039370078740157,
          "duration": 0.4054050000000018
        },
        {
          "name": "G#4",
          "midi": 68,
          "time": 108.85124250000038,
          "velocity": 0.5039370078740157,
          "duration": 0.4054050000000018
        },
        {
          "name": "G#4",
          "midi": 68,
          "time": 109.25664750000038,
          "velocity": 0.5039370078740157,
          "duration": 0.4054050000000018
        },
        {
          "name": "F#4",
          "midi": 66,
          "time": 109.66205250000039,
          "velocity": 0.5039370078740157,
          "duration": 0.4054050000000018
        },
        {
          "name": "F#4",
          "midi": 66,
          "time": 110.06745750000039,
          "velocity": 0.5039370078740157,
          "duration": 0.4054050000000018
        },
        {
          "name": "G#4",
          "midi": 68,
          "time": 110.47286250000039,
          "velocity": 0.5039370078740157,
          "duration": 0.4054050000000018
        },
        {
          "name": "F#4",
          "midi": 66,
          "time": 110.87826750000039,
          "velocity": 0.5039370078740157,
          "duration": 0.4054050000000018
        },
        {
          "name": "E4",
          "midi": 64,
          "time": 111.6890775000004,
          "velocity": 0.5039370078740157,
          "duration": 0.4054050000000018
        },
        {
          "name": "F#4",
          "midi": 66,
          "time": 112.9052925000004,
          "velocity": 0.5039370078740157,
          "duration": 0.4054050000000018
        },
        {
          "name": "G#4",
          "midi": 68,
          "time": 113.7161025000004,
          "velocity": 0.5039370078740157,
          "duration": 0.4054050000000018
        },
        {
          "name": "G#4",
          "midi": 68,
          "time": 114.5269125000004,
          "velocity": 0.5039370078740157,
          "duration": 0.4054050000000018
        },
        {
          "name": "F#4",
          "midi": 66,
          "time": 114.93231750000041,
          "velocity": 0.5039370078740157,
          "duration": 0.4054050000000018
        },
        {
          "name": "E4",
          "midi": 64,
          "time": 115.33772250000041,
          "velocity": 0.5039370078740157,
          "duration": 0.4054050000000018
        },
        {
          "name": "E4",
          "midi": 64,
          "time": 115.74312750000041,
          "velocity": 0.5039370078740157,
          "duration": 0.4054050000000018
        },
        {
          "name": "E4",
          "midi": 64,
          "time": 116.14853250000041,
          "velocity": 0.5039370078740157,
          "duration": 0.4054050000000018
        },
        {
          "name": "F#4",
          "midi": 66,
          "time": 116.55393750000042,
          "velocity": 0.5039370078740157,
          "duration": 0.4054050000000018
        },
        {
          "name": "G#4",
          "midi": 68,
          "time": 116.95934250000042,
          "velocity": 0.5039370078740157,
          "duration": 0.4054050000000018
        },
        {
          "name": "G#4",
          "midi": 68,
          "time": 117.36474750000042,
          "velocity": 0.5039370078740157,
          "duration": 0.4054050000000018
        },
        {
          "name": "A#4",
          "midi": 70,
          "time": 117.77015250000042,
          "velocity": 0.5039370078740157,
          "duration": 0.4054050000000018
        },
        {
          "name": "A#4",
          "midi": 70,
          "time": 118.17555750000042,
          "velocity": 0.5039370078740157,
          "duration": 0.4054050000000018
        },
        {
          "name": "A#4",
          "midi": 70,
          "time": 118.58096250000042,
          "velocity": 0.5039370078740157,
          "duration": 0.4054050000000018
        },
        {
          "name": "G#4",
          "midi": 68,
          "time": 118.98636750000043,
          "velocity": 0.5039370078740157,
          "duration": 0.4054050000000018
        },
        {
          "name": "F#4",
          "midi": 66,
          "time": 119.39177250000043,
          "velocity": 0.5039370078740157,
          "duration": 0.4054050000000018
        },
        {
          "name": "F#4",
          "midi": 66,
          "time": 120.20258250000043,
          "velocity": 0.5039370078740157,
          "duration": 0.4054050000000018
        },
        {
          "name": "F#4",
          "midi": 66,
          "time": 120.20258250000043,
          "velocity": 0.5039370078740157,
          "duration": 0.4054050000000018
        },
        {
          "name": "F#4",
          "midi": 66,
          "time": 120.60798750000043,
          "velocity": 0.5039370078740157,
          "duration": 0.4054050000000018
        },
        {
          "name": "F#4",
          "midi": 66,
          "time": 121.01339250000044,
          "velocity": 0.5039370078740157,
          "duration": 0.4054050000000018
        },
        {
          "name": "F#4",
          "midi": 66,
          "time": 121.82420250000044,
          "velocity": 0.5039370078740157,
          "duration": 0.4054050000000018
        },
        {
          "name": "F#4",
          "midi": 66,
          "time": 121.82420250000044,
          "velocity": 0.5039370078740157,
          "duration": 0.4054050000000018
        },
        {
          "name": "E4",
          "midi": 64,
          "time": 122.22960750000044,
          "velocity": 0.5039370078740157,
          "duration": 0.4054050000000018
        },
        {
          "name": "E4",
          "midi": 64,
          "time": 122.22960750000044,
          "velocity": 0.5039370078740157,
          "duration": 0.4054050000000018
        },
        {
          "name": "F#4",
          "midi": 66,
          "time": 123.04041750000044,
          "velocity": 0.5039370078740157,
          "duration": 0.4054050000000018
        },
        {
          "name": "F#4",
          "midi": 66,
          "time": 123.85122750000045,
          "velocity": 0.5039370078740157,
          "duration": 0.4054050000000018
        },
        {
          "name": "G#4",
          "midi": 68,
          "time": 124.25663250000045,
          "velocity": 0.5039370078740157,
          "duration": 0.4054050000000018
        },
        {
          "name": "F#4",
          "midi": 66,
          "time": 124.66203750000045,
          "velocity": 0.5039370078740157,
          "duration": 0.4054050000000018
        },
        {
          "name": "A#4",
          "midi": 70,
          "time": 125.87825250000046,
          "velocity": 0.5039370078740157,
          "duration": 0.4054050000000018
        },
        {
          "name": "G#4",
          "midi": 68,
          "time": 126.28365750000046,
          "velocity": 0.5039370078740157,
          "duration": 0.4054050000000018
        },
        {
          "name": "G#4",
          "midi": 68,
          "time": 126.68906250000046,
          "velocity": 0.5039370078740157,
          "duration": 0.4054050000000018
        },
        {
          "name": "G#4",
          "midi": 68,
          "time": 127.09446750000046,
          "velocity": 0.5039370078740157,
          "duration": 0.4054050000000018
        },
        {
          "name": "A#4",
          "midi": 70,
          "time": 127.49987250000046,
          "velocity": 0.5039370078740157,
          "duration": 0.4054050000000018
        },
        {
          "name": "A#4",
          "midi": 70,
          "time": 127.90527750000047,
          "velocity": 0.5039370078740157,
          "duration": 0.4054050000000018
        },
        {
          "name": "F#4",
          "midi": 66,
          "time": 128.31068250000047,
          "velocity": 0.5039370078740157,
          "duration": 0.4054050000000018
        },
        {
          "name": "F#4",
          "midi": 66,
          "time": 128.71608750000047,
          "velocity": 0.5039370078740157,
          "duration": 0.4054050000000018
        },
        {
          "name": "A#4",
          "midi": 70,
          "time": 129.12149250000047,
          "velocity": 0.5039370078740157,
          "duration": 0.4054050000000018
        },
        {
          "name": "G#4",
          "midi": 68,
          "time": 129.52689750000047,
          "velocity": 0.5039370078740157,
          "duration": 0.4054050000000018
        },
        {
          "name": "G#4",
          "midi": 68,
          "time": 129.52689750000047,
          "velocity": 0.5039370078740157,
          "duration": 0.4054050000000018
        },
        {
          "name": "G#4",
          "midi": 68,
          "time": 129.93230250000047,
          "velocity": 0.5039370078740157,
          "duration": 0.4054050000000018
        },
        {
          "name": "G#4",
          "midi": 68,
          "time": 129.93230250000047,
          "velocity": 0.5039370078740157,
          "duration": 0.4054050000000018
        },
        {
          "name": "F#4",
          "midi": 66,
          "time": 130.33770750000048,
          "velocity": 0.5039370078740157,
          "duration": 0.4054050000000018
        },
        {
          "name": "F#4",
          "midi": 66,
          "time": 130.33770750000048,
          "velocity": 0.5039370078740157,
          "duration": 0.4054050000000018
        },
        {
          "name": "E4",
          "midi": 64,
          "time": 130.74311250000048,
          "velocity": 0.5039370078740157,
          "duration": 0.4054050000000018
        },
        {
          "name": "E4",
          "midi": 64,
          "time": 130.74311250000048,
          "velocity": 0.5039370078740157,
          "duration": 0.4054050000000018
        },
        {
          "name": "F#4",
          "midi": 66,
          "time": 131.14851750000048,
          "velocity": 0.5039370078740157,
          "duration": 0.4054050000000018
        },
        {
          "name": "G#4",
          "midi": 68,
          "time": 131.55392250000048,
          "velocity": 0.5039370078740157,
          "duration": 0.4054050000000018
        },
        {
          "name": "G#4",
          "midi": 68,
          "time": 131.95932750000048,
          "velocity": 0.5039370078740157,
          "duration": 0.4054050000000018
        },
        {
          "name": "G#4",
          "midi": 68,
          "time": 131.95932750000048,
          "velocity": 0.5039370078740157,
          "duration": 0.4054050000000018
        },
        {
          "name": "A#4",
          "midi": 70,
          "time": 132.36473250000049,
          "velocity": 0.5039370078740157,
          "duration": 0.4054050000000018
        },
        {
          "name": "A#4",
          "midi": 70,
          "time": 132.36473250000049,
          "velocity": 0.5039370078740157,
          "duration": 0.4054050000000018
        },
        {
          "name": "G#4",
          "midi": 68,
          "time": 132.7701375000005,
          "velocity": 0.5039370078740157,
          "duration": 0.4054050000000018
        },
        {
          "name": "G#4",
          "midi": 68,
          "time": 133.1755425000005,
          "velocity": 0.5039370078740157,
          "duration": 0.4054050000000018
        },
        {
          "name": "A#4",
          "midi": 70,
          "time": 133.5809475000005,
          "velocity": 0.5039370078740157,
          "duration": 0.4054050000000018
        },
        {
          "name": "A#4",
          "midi": 70,
          "time": 133.9863525000005,
          "velocity": 0.5039370078740157,
          "duration": 0.4054050000000018
        },
        {
          "name": "A#4",
          "midi": 70,
          "time": 134.3917575000005,
          "velocity": 0.5039370078740157,
          "duration": 0.4054050000000018
        },
        {
          "name": "G#4",
          "midi": 68,
          "time": 134.7971625000005,
          "velocity": 0.5039370078740157,
          "duration": 0.4054050000000018
        },
        {
          "name": "G#4",
          "midi": 68,
          "time": 135.2025675000005,
          "velocity": 0.5039370078740157,
          "duration": 0.4054050000000018
        },
        {
          "name": "A#4",
          "midi": 70,
          "time": 135.6079725000005,
          "velocity": 0.5039370078740157,
          "duration": 0.4054050000000018
        },
        {
          "name": "A#4",
          "midi": 70,
          "time": 135.6079725000005,
          "velocity": 0.5039370078740157,
          "duration": 0.4054050000000018
        },
        {
          "name": "G#4",
          "midi": 68,
          "time": 136.0133775000005,
          "velocity": 0.5039370078740157,
          "duration": 0.4054050000000018
        },
        {
          "name": "G#4",
          "midi": 68,
          "time": 136.0133775000005,
          "velocity": 0.5039370078740157,
          "duration": 0.4054050000000018
        },
        {
          "name": "G#4",
          "midi": 68,
          "time": 136.0133775000005,
          "velocity": 0.5039370078740157,
          "duration": 0.4054050000000018
        },
        {
          "name": "G#4",
          "midi": 68,
          "time": 136.4187825000005,
          "velocity": 0.5039370078740157,
          "duration": 0.4054050000000018
        },
        {
          "name": "E4",
          "midi": 64,
          "time": 136.8241875000005,
          "velocity": 0.5039370078740157,
          "duration": 0.4054050000000018
        },
        {
          "name": "E4",
          "midi": 64,
          "time": 137.2295925000005,
          "velocity": 0.5039370078740157,
          "duration": 0.4054050000000018
        },
        {
          "name": "G#4",
          "midi": 68,
          "time": 137.6349975000005,
          "velocity": 0.5039370078740157,
          "duration": 0.4054050000000018
        },
        {
          "name": "F#4",
          "midi": 66,
          "time": 138.0404025000005,
          "velocity": 0.5039370078740157,
          "duration": 0.4054050000000018
        },
        {
          "name": "A#4",
          "midi": 70,
          "time": 138.8512125000005,
          "velocity": 0.5039370078740157,
          "duration": 0.4054050000000018
        },
        {
          "name": "A#4",
          "midi": 70,
          "time": 138.8512125000005,
          "velocity": 0.5039370078740157,
          "duration": 0.4054050000000018
        },
        {
          "name": "A#4",
          "midi": 70,
          "time": 139.25661750000052,
          "velocity": 0.5039370078740157,
          "duration": 0.4054050000000018
        },
        {
          "name": "G#4",
          "midi": 68,
          "time": 139.66202250000052,
          "velocity": 0.5039370078740157,
          "duration": 0.4054050000000018
        },
        {
          "name": "E4",
          "midi": 64,
          "time": 140.47283250000052,
          "velocity": 0.5039370078740157,
          "duration": 0.4054050000000018
        },
        {
          "name": "E4",
          "midi": 64,
          "time": 140.47283250000052,
          "velocity": 0.5039370078740157,
          "duration": 0.4054050000000018
        },
        {
          "name": "E4",
          "midi": 64,
          "time": 140.87823750000052,
          "velocity": 0.5039370078740157,
          "duration": 0.4054050000000018
        },
        {
          "name": "E4",
          "midi": 64,
          "time": 141.28364250000052,
          "velocity": 0.5039370078740157,
          "duration": 0.4054050000000018
        },
        {
          "name": "E4",
          "midi": 64,
          "time": 141.28364250000052,
          "velocity": 0.5039370078740157,
          "duration": 0.4054050000000018
        },
        {
          "name": "F#4",
          "midi": 66,
          "time": 141.68904750000053,
          "velocity": 0.5039370078740157,
          "duration": 0.4054050000000018
        },
        {
          "name": "G#4",
          "midi": 68,
          "time": 142.09445250000053,
          "velocity": 0.5039370078740157,
          "duration": 0.4054050000000018
        },
        {
          "name": "G#4",
          "midi": 68,
          "time": 142.49985750000053,
          "velocity": 0.5039370078740157,
          "duration": 0.4054050000000018
        },
        {
          "name": "G#4",
          "midi": 68,
          "time": 142.49985750000053,
          "velocity": 0.5039370078740157,
          "duration": 0.4054050000000018
        },
        {
          "name": "G#4",
          "midi": 68,
          "time": 142.90526250000053,
          "velocity": 0.5039370078740157,
          "duration": 0.4054050000000018
        },
        {
          "name": "A#4",
          "midi": 70,
          "time": 143.31066750000053,
          "velocity": 0.5039370078740157,
          "duration": 0.4054050000000018
        },
        {
          "name": "A#4",
          "midi": 70,
          "time": 143.31066750000053,
          "velocity": 0.5039370078740157,
          "duration": 0.4054050000000018
        },
        {
          "name": "G#4",
          "midi": 68,
          "time": 143.71607250000054,
          "velocity": 0.5039370078740157,
          "duration": 0.4054050000000018
        },
        {
          "name": "F#4",
          "midi": 66,
          "time": 144.12147750000054,
          "velocity": 0.5039370078740157,
          "duration": 0.4054050000000018
        },
        {
          "name": "A#4",
          "midi": 70,
          "time": 145.33769250000054,
          "velocity": 0.5039370078740157,
          "duration": 0.4054050000000018
        },
        {
          "name": "A#4",
          "midi": 70,
          "time": 145.33769250000054,
          "velocity": 0.5039370078740157,
          "duration": 0.4054050000000018
        },
        {
          "name": "A#4",
          "midi": 70,
          "time": 145.74309750000054,
          "velocity": 0.5039370078740157,
          "duration": 0.4054050000000018
        },
        {
          "name": "A#4",
          "midi": 70,
          "time": 146.14850250000055,
          "velocity": 0.5039370078740157,
          "duration": 0.4054050000000018
        },
        {
          "name": "G#4",
          "midi": 68,
          "time": 146.55390750000055,
          "velocity": 0.5039370078740157,
          "duration": 0.4054050000000018
        },
        {
          "name": "E4",
          "midi": 64,
          "time": 146.95931250000055,
          "velocity": 0.5039370078740157,
          "duration": 0.4054050000000018
        },
        {
          "name": "E4",
          "midi": 64,
          "time": 146.95931250000055,
          "velocity": 0.5039370078740157,
          "duration": 0.4054050000000018
        },
        {
          "name": "E4",
          "midi": 64,
          "time": 147.36471750000055,
          "velocity": 0.5039370078740157,
          "duration": 0.4054050000000018
        },
        {
          "name": "F#4",
          "midi": 66,
          "time": 147.77012250000055,
          "velocity": 0.5039370078740157,
          "duration": 0.4054050000000018
        },
        {
          "name": "G#4",
          "midi": 68,
          "time": 148.58093250000056,
          "velocity": 0.5039370078740157,
          "duration": 0.4054050000000018
        },
        {
          "name": "G#4",
          "midi": 68,
          "time": 148.98633750000056,
          "velocity": 0.5039370078740157,
          "duration": 0.4054050000000018
        },
        {
          "name": "G#4",
          "midi": 68,
          "time": 148.98633750000056,
          "velocity": 0.5039370078740157,
          "duration": 0.4054050000000018
        },
        {
          "name": "G#4",
          "midi": 68,
          "time": 149.39174250000056,
          "velocity": 0.5039370078740157,
          "duration": 0.4054050000000018
        },
        {
          "name": "A#4",
          "midi": 70,
          "time": 149.79714750000056,
          "velocity": 0.5039370078740157,
          "duration": 0.4054050000000018
        },
        {
          "name": "A#4",
          "midi": 70,
          "time": 149.79714750000056,
          "velocity": 0.5039370078740157,
          "duration": 0.4054050000000018
        },
        {
          "name": "G#4",
          "midi": 68,
          "time": 150.20255250000056,
          "velocity": 0.5039370078740157,
          "duration": 0.4054050000000018
        },
        {
          "name": "F#4",
          "midi": 66,
          "time": 150.60795750000057,
          "velocity": 0.5039370078740157,
          "duration": 0.4054050000000018
        },
        {
          "name": "E4",
          "midi": 64,
          "time": 151.82417250000057,
          "velocity": 0.5039370078740157,
          "duration": 0.4054050000000018
        },
        {
          "name": "E4",
          "midi": 64,
          "time": 152.22957750000057,
          "velocity": 0.5039370078740157,
          "duration": 0.4054050000000018
        },
        {
          "name": "F#4",
          "midi": 66,
          "time": 152.63498250000058,
          "velocity": 0.5039370078740157,
          "duration": 0.4054050000000018
        },
        {
          "name": "F#4",
          "midi": 66,
          "time": 152.63498250000058,
          "velocity": 0.5039370078740157,
          "duration": 0.4054050000000018
        },
        {
          "name": "G#4",
          "midi": 68,
          "time": 153.04038750000058,
          "velocity": 0.5039370078740157,
          "duration": 0.4054050000000018
        },
        {
          "name": "G#4",
          "midi": 68,
          "time": 153.04038750000058,
          "velocity": 0.5039370078740157,
          "duration": 0.4054050000000018
        },
        {
          "name": "F#4",
          "midi": 66,
          "time": 153.44579250000058,
          "velocity": 0.5039370078740157,
          "duration": 0.4054050000000018
        },
        {
          "name": "F#4",
          "midi": 66,
          "time": 153.44579250000058,
          "velocity": 0.5039370078740157,
          "duration": 0.4054050000000018
        },
        {
          "name": "A#4",
          "midi": 70,
          "time": 153.85119750000058,
          "velocity": 0.5039370078740157,
          "duration": 0.4054050000000018
        },
        {
          "name": "A#4",
          "midi": 70,
          "time": 153.85119750000058,
          "velocity": 0.5039370078740157,
          "duration": 0.4054050000000018
        },
        {
          "name": "E4",
          "midi": 64,
          "time": 154.25660250000058,
          "velocity": 0.5039370078740157,
          "duration": 0.4054050000000018
        },
        {
          "name": "E4",
          "midi": 64,
          "time": 154.25660250000058,
          "velocity": 0.5039370078740157,
          "duration": 0.4054050000000018
        },
        {
          "name": "G#4",
          "midi": 68,
          "time": 154.66200750000058,
          "velocity": 0.5039370078740157,
          "duration": 0.4054050000000018
        },
        {
          "name": "G#4",
          "midi": 68,
          "time": 154.66200750000058,
          "velocity": 0.5039370078740157,
          "duration": 0.4054050000000018
        },
        {
          "name": "G#4",
          "midi": 68,
          "time": 154.66200750000058,
          "velocity": 0.5039370078740157,
          "duration": 0.4054050000000018
        },
        {
          "name": "F#4",
          "midi": 66,
          "time": 155.0674125000006,
          "velocity": 0.5039370078740157,
          "duration": 0.4054050000000018
        },
        {
          "name": "F#4",
          "midi": 66,
          "time": 155.0674125000006,
          "velocity": 0.5039370078740157,
          "duration": 0.4054050000000018
        },
        {
          "name": "A#4",
          "midi": 70,
          "time": 155.4728175000006,
          "velocity": 0.5039370078740157,
          "duration": 0.4054050000000018
        },
        {
          "name": "A#4",
          "midi": 70,
          "time": 155.4728175000006,
          "velocity": 0.5039370078740157,
          "duration": 0.4054050000000018
        },
        {
          "name": "G#4",
          "midi": 68,
          "time": 155.8782225000006,
          "velocity": 0.5039370078740157,
          "duration": 0.4054050000000018
        },
        {
          "name": "G#4",
          "midi": 68,
          "time": 155.8782225000006,
          "velocity": 0.5039370078740157,
          "duration": 0.4054050000000018
        },
        {
          "name": "F#4",
          "midi": 66,
          "time": 156.2836275000006,
          "velocity": 0.5039370078740157,
          "duration": 0.4054050000000018
        },
        {
          "name": "F#4",
          "midi": 66,
          "time": 156.2836275000006,
          "velocity": 0.5039370078740157,
          "duration": 0.4054050000000018
        },
        {
          "name": "E4",
          "midi": 64,
          "time": 156.6890325000006,
          "velocity": 0.5039370078740157,
          "duration": 0.4054050000000018
        },
        {
          "name": "E4",
          "midi": 64,
          "time": 156.6890325000006,
          "velocity": 0.5039370078740157,
          "duration": 0.4054050000000018
        },
        {
          "name": "F#4",
          "midi": 66,
          "time": 157.0944375000006,
          "velocity": 0.5039370078740157,
          "duration": 0.4054050000000018
        },
        {
          "name": "F#4",
          "midi": 66,
          "time": 157.0944375000006,
          "velocity": 0.5039370078740157,
          "duration": 0.4054050000000018
        },
        {
          "name": "G#4",
          "midi": 68,
          "time": 157.4998425000006,
          "velocity": 0.5039370078740157,
          "duration": 0.4054050000000018
        },
        {
          "name": "G#4",
          "midi": 68,
          "time": 157.4998425000006,
          "velocity": 0.5039370078740157,
          "duration": 0.4054050000000018
        },
        {
          "name": "G#4",
          "midi": 68,
          "time": 157.9052475000006,
          "velocity": 0.5039370078740157,
          "duration": 0.4054050000000018
        },
        {
          "name": "F#4",
          "midi": 66,
          "time": 158.3106525000006,
          "velocity": 0.5039370078740157,
          "duration": 0.4054050000000018
        },
        {
          "name": "F#4",
          "midi": 66,
          "time": 158.3106525000006,
          "velocity": 0.5039370078740157,
          "duration": 0.4054050000000018
        },
        {
          "name": "G#4",
          "midi": 68,
          "time": 158.7160575000006,
          "velocity": 0.5039370078740157,
          "duration": 0.4054050000000018
        },
        {
          "name": "A#4",
          "midi": 70,
          "time": 159.1214625000006,
          "velocity": 0.5039370078740157,
          "duration": 0.4054050000000018
        },
        {
          "name": "F#4",
          "midi": 66,
          "time": 159.5268675000006,
          "velocity": 0.5039370078740157,
          "duration": 0.4054050000000018
        },
        {
          "name": "E4",
          "midi": 64,
          "time": 159.9322725000006,
          "velocity": 0.5039370078740157,
          "duration": 0.4054050000000018
        },
        {
          "name": "G#4",
          "midi": 68,
          "time": 160.3376775000006,
          "velocity": 0.5039370078740157,
          "duration": 0.4054050000000018
        },
        {
          "name": "G#4",
          "midi": 68,
          "time": 160.7430825000006,
          "velocity": 0.5039370078740157,
          "duration": 0.4054050000000018
        },
        {
          "name": "F#4",
          "midi": 66,
          "time": 161.1484875000006,
          "velocity": 0.5039370078740157,
          "duration": 0.4054050000000018
        },
        {
          "name": "G#4",
          "midi": 68,
          "time": 161.55389250000061,
          "velocity": 0.5039370078740157,
          "duration": 0.4054050000000018
        },
        {
          "name": "A#4",
          "midi": 70,
          "time": 161.95929750000062,
          "velocity": 0.5039370078740157,
          "duration": 0.4054050000000018
        },
        {
          "name": "G#4",
          "midi": 68,
          "time": 162.36470250000062,
          "velocity": 0.5039370078740157,
          "duration": 0.4054050000000018
        },
        {
          "name": "F#4",
          "midi": 66,
          "time": 162.77010750000062,
          "velocity": 0.5039370078740157,
          "duration": 0.4054050000000018
        },
        {
          "name": "E4",
          "midi": 64,
          "time": 163.17551250000062,
          "velocity": 0.5039370078740157,
          "duration": 0.4054050000000018
        },
        {
          "name": "G#4",
          "midi": 68,
          "time": 163.58091750000062,
          "velocity": 0.5039370078740157,
          "duration": 0.4054050000000018
        },
        {
          "name": "A#4",
          "midi": 70,
          "time": 163.98632250000063,
          "velocity": 0.5039370078740157,
          "duration": 0.4054050000000018
        },
        {
          "name": "F#4",
          "midi": 66,
          "time": 164.79713250000063,
          "velocity": 0.5039370078740157,
          "duration": 0.4054050000000018
        },
        {
          "name": "F#4",
          "midi": 66,
          "time": 165.20253750000063,
          "velocity": 0.5039370078740157,
          "duration": 0.4054050000000018
        },
        {
          "name": "A#4",
          "midi": 70,
          "time": 165.60794250000063,
          "velocity": 0.5039370078740157,
          "duration": 0.4054050000000018
        },
        {
          "name": "F#4",
          "midi": 66,
          "time": 166.01334750000063,
          "velocity": 0.5039370078740157,
          "duration": 0.4054050000000018
        },
        {
          "name": "F#4",
          "midi": 66,
          "time": 166.41875250000064,
          "velocity": 0.5039370078740157,
          "duration": 0.4054050000000018
        },
        {
          "name": "F#4",
          "midi": 66,
          "time": 166.41875250000064,
          "velocity": 0.5039370078740157,
          "duration": 0.4054050000000018
        },
        {
          "name": "G#4",
          "midi": 68,
          "time": 166.82415750000064,
          "velocity": 0.5039370078740157,
          "duration": 0.4054050000000018
        },
        {
          "name": "G#4",
          "midi": 68,
          "time": 166.82415750000064,
          "velocity": 0.5039370078740157,
          "duration": 0.4054050000000018
        },
        {
          "name": "G#4",
          "midi": 68,
          "time": 167.22956250000064,
          "velocity": 0.5039370078740157,
          "duration": 0.4054050000000018
        },
        {
          "name": "E4",
          "midi": 64,
          "time": 168.04037250000064,
          "velocity": 0.5039370078740157,
          "duration": 0.4054050000000018
        },
        {
          "name": "F#4",
          "midi": 66,
          "time": 168.44577750000064,
          "velocity": 0.5039370078740157,
          "duration": 0.4054050000000018
        },
        {
          "name": "G#4",
          "midi": 68,
          "time": 168.85118250000065,
          "velocity": 0.5039370078740157,
          "duration": 0.4054050000000018
        },
        {
          "name": "E4",
          "midi": 64,
          "time": 169.25658750000065,
          "velocity": 0.5039370078740157,
          "duration": 0.4054050000000018
        },
        {
          "name": "F#4",
          "midi": 66,
          "time": 169.66199250000065,
          "velocity": 0.5039370078740157,
          "duration": 0.4054050000000018
        },
        {
          "name": "G#4",
          "midi": 68,
          "time": 170.06739750000065,
          "velocity": 0.5039370078740157,
          "duration": 0.4054050000000018
        },
        {
          "name": "E4",
          "midi": 64,
          "time": 170.47280250000065,
          "velocity": 0.5039370078740157,
          "duration": 0.4054050000000018
        },
        {
          "name": "F#4",
          "midi": 66,
          "time": 170.87820750000066,
          "velocity": 0.5039370078740157,
          "duration": 0.4054050000000018
        },
        {
          "name": "G#4",
          "midi": 68,
          "time": 171.28361250000066,
          "velocity": 0.5039370078740157,
          "duration": 0.4054050000000018
        },
        {
          "name": "A#4",
          "midi": 70,
          "time": 172.09442250000066,
          "velocity": 0.5039370078740157,
          "duration": 0.4054050000000018
        },
        {
          "name": "E4",
          "midi": 64,
          "time": 172.90523250000066,
          "velocity": 0.5039370078740157,
          "duration": 0.4054050000000018
        },
        {
          "name": "F#4",
          "midi": 66,
          "time": 173.71604250000067,
          "velocity": 0.5039370078740157,
          "duration": 0.4054050000000018
        },
        {
          "name": "G#4",
          "midi": 68,
          "time": 174.52685250000067,
          "velocity": 0.5039370078740157,
          "duration": 0.4054050000000018
        },
        {
          "name": "A#4",
          "midi": 70,
          "time": 174.93225750000067,
          "velocity": 0.5039370078740157,
          "duration": 0.4054050000000018
        },
        {
          "name": "G#4",
          "midi": 68,
          "time": 176.14847250000068,
          "velocity": 0.5039370078740157,
          "duration": 0.4054050000000018
        },
        {
          "name": "A#4",
          "midi": 70,
          "time": 176.95928250000068,
          "velocity": 0.5039370078740157,
          "duration": 0.4054050000000018
        },
        {
          "name": "G#4",
          "midi": 68,
          "time": 177.7700925000007,
          "velocity": 0.5039370078740157,
          "duration": 0.4054050000000018
        },
        {
          "name": "A#4",
          "midi": 70,
          "time": 178.5809025000007,
          "velocity": 0.5039370078740157,
          "duration": 0.4054050000000018
        },
        {
          "name": "E4",
          "midi": 64,
          "time": 179.3917125000007,
          "velocity": 0.5039370078740157,
          "duration": 0.4054050000000018
        },
        {
          "name": "A#4",
          "midi": 70,
          "time": 180.2025225000007,
          "velocity": 0.5039370078740157,
          "duration": 0.4054050000000018
        },
        {
          "name": "G#4",
          "midi": 68,
          "time": 181.0133325000007,
          "velocity": 0.5039370078740157,
          "duration": 0.4054050000000018
        },
        {
          "name": "G#4",
          "midi": 68,
          "time": 181.8241425000007,
          "velocity": 0.5039370078740157,
          "duration": 0.4054050000000018
        },
        {
          "name": "G#4",
          "midi": 68,
          "time": 182.6349525000007,
          "velocity": 0.5039370078740157,
          "duration": 0.4054050000000018
        },
        {
          "name": "G#4",
          "midi": 68,
          "time": 183.4457625000007,
          "velocity": 0.5039370078740157,
          "duration": 0.4054050000000018
        },
        {
          "name": "F#4",
          "midi": 66,
          "time": 184.25657250000071,
          "velocity": 0.5039370078740157,
          "duration": 0.4054050000000018
        },
        {
          "name": "G#4",
          "midi": 68,
          "time": 184.66197750000072,
          "velocity": 0.5039370078740157,
          "duration": 0.4054050000000018
        },
        {
          "name": "G#4",
          "midi": 68,
          "time": 185.06738250000072,
          "velocity": 0.5039370078740157,
          "duration": 0.4054050000000018
        },
        {
          "name": "F#4",
          "midi": 66,
          "time": 185.47278750000072,
          "velocity": 0.5039370078740157,
          "duration": 0.4054050000000018
        },
        {
          "name": "A#4",
          "midi": 70,
          "time": 185.87819250000072,
          "velocity": 0.5039370078740157,
          "duration": 0.4054050000000018
        },
        {
          "name": "A#4",
          "midi": 70,
          "time": 186.28359750000072,
          "velocity": 0.5039370078740157,
          "duration": 0.4054050000000018
        },
        {
          "name": "G#4",
          "midi": 68,
          "time": 186.68900250000073,
          "velocity": 0.5039370078740157,
          "duration": 0.4054050000000018
        },
        {
          "name": "G#4",
          "midi": 68,
          "time": 187.09440750000073,
          "velocity": 0.5039370078740157,
          "duration": 0.4054050000000018
        },
        {
          "name": "G#4",
          "midi": 68,
          "time": 187.09440750000073,
          "velocity": 0.5039370078740157,
          "duration": 0.4054050000000018
        },
        {
          "name": "A#4",
          "midi": 70,
          "time": 187.49981250000073,
          "velocity": 0.5039370078740157,
          "duration": 0.4054050000000018
        },
        {
          "name": "A#4",
          "midi": 70,
          "time": 187.49981250000073,
          "velocity": 0.5039370078740157,
          "duration": 0.4054050000000018
        },
        {
          "name": "A#4",
          "midi": 70,
          "time": 187.90521750000073,
          "velocity": 0.5039370078740157,
          "duration": 0.4054050000000018
        },
        {
          "name": "F#4",
          "midi": 66,
          "time": 188.31062250000073,
          "velocity": 0.5039370078740157,
          "duration": 0.4054050000000018
        },
        {
          "name": "F#4",
          "midi": 66,
          "time": 188.71602750000073,
          "velocity": 0.5039370078740157,
          "duration": 0.4054050000000018
        },
        {
          "name": "G#4",
          "midi": 68,
          "time": 189.12143250000074,
          "velocity": 0.5039370078740157,
          "duration": 0.4054050000000018
        },
        {
          "name": "A#4",
          "midi": 70,
          "time": 189.52683750000074,
          "velocity": 0.5039370078740157,
          "duration": 0.4054050000000018
        },
        {
          "name": "A#4",
          "midi": 70,
          "time": 189.93224250000074,
          "velocity": 0.5039370078740157,
          "duration": 0.4054050000000018
        },
        {
          "name": "A#4",
          "midi": 70,
          "time": 189.93224250000074,
          "velocity": 0.5039370078740157,
          "duration": 0.4054050000000018
        },
        {
          "name": "G#4",
          "midi": 68,
          "time": 190.33764750000074,
          "velocity": 0.5039370078740157,
          "duration": 0.4054050000000018
        },
        {
          "name": "G#4",
          "midi": 68,
          "time": 190.33764750000074,
          "velocity": 0.5039370078740157,
          "duration": 0.4054050000000018
        },
        {
          "name": "G#4",
          "midi": 68,
          "time": 190.74305250000074,
          "velocity": 0.5039370078740157,
          "duration": 0.4054050000000018
        },
        {
          "name": "G#4",
          "midi": 68,
          "time": 191.14845750000075,
          "velocity": 0.5039370078740157,
          "duration": 0.4054050000000018
        },
        {
          "name": "E4",
          "midi": 64,
          "time": 191.55386250000075,
          "velocity": 0.5039370078740157,
          "duration": 0.4054050000000018
        },
        {
          "name": "A#4",
          "midi": 70,
          "time": 192.36467250000075,
          "velocity": 0.5039370078740157,
          "duration": 0.4054050000000018
        },
        {
          "name": "A#4",
          "midi": 70,
          "time": 192.36467250000075,
          "velocity": 0.5039370078740157,
          "duration": 0.4054050000000018
        },
        {
          "name": "E4",
          "midi": 64,
          "time": 192.77007750000075,
          "velocity": 0.5039370078740157,
          "duration": 0.4054050000000018
        },
        {
          "name": "E4",
          "midi": 64,
          "time": 193.17548250000075,
          "velocity": 0.5039370078740157,
          "duration": 0.4054050000000018
        },
        {
          "name": "E4",
          "midi": 64,
          "time": 193.58088750000076,
          "velocity": 0.5039370078740157,
          "duration": 0.4054050000000018
        },
        {
          "name": "E4",
          "midi": 64,
          "time": 193.58088750000076,
          "velocity": 0.5039370078740157,
          "duration": 0.4054050000000018
        },
        {
          "name": "A#4",
          "midi": 70,
          "time": 193.98629250000076,
          "velocity": 0.5039370078740157,
          "duration": 0.4054050000000018
        },
        {
          "name": "A#4",
          "midi": 70,
          "time": 194.39169750000076,
          "velocity": 0.5039370078740157,
          "duration": 0.4054050000000018
        },
        {
          "name": "A#4",
          "midi": 70,
          "time": 194.39169750000076,
          "velocity": 0.5039370078740157,
          "duration": 0.4054050000000018
        },
        {
          "name": "F#4",
          "midi": 66,
          "time": 194.79710250000076,
          "velocity": 0.5039370078740157,
          "duration": 0.4054050000000018
        },
        {
          "name": "F#4",
          "midi": 66,
          "time": 195.20250750000076,
          "velocity": 0.5039370078740157,
          "duration": 0.4054050000000018
        },
        {
          "name": "F#4",
          "midi": 66,
          "time": 195.20250750000076,
          "velocity": 0.5039370078740157,
          "duration": 0.4054050000000018
        },
        {
          "name": "A#4",
          "midi": 70,
          "time": 195.60791250000077,
          "velocity": 0.5039370078740157,
          "duration": 0.4054050000000018
        },
        {
          "name": "A#4",
          "midi": 70,
          "time": 195.60791250000077,
          "velocity": 0.5039370078740157,
          "duration": 0.4054050000000018
        },
        {
          "name": "G#4",
          "midi": 68,
          "time": 196.01331750000077,
          "velocity": 0.5039370078740157,
          "duration": 0.4054050000000018
        },
        {
          "name": "G#4",
          "midi": 68,
          "time": 196.01331750000077,
          "velocity": 0.5039370078740157,
          "duration": 0.4054050000000018
        },
        {
          "name": "G#4",
          "midi": 68,
          "time": 196.41872250000077,
          "velocity": 0.5039370078740157,
          "duration": 0.4054050000000018
        },
        {
          "name": "F#4",
          "midi": 66,
          "time": 196.82412750000077,
          "velocity": 0.5039370078740157,
          "duration": 0.4054050000000018
        },
        {
          "name": "F#4",
          "midi": 66,
          "time": 196.82412750000077,
          "velocity": 0.5039370078740157,
          "duration": 0.4054050000000018
        },
        {
          "name": "F#4",
          "midi": 66,
          "time": 197.22953250000077,
          "velocity": 0.5039370078740157,
          "duration": 0.4054050000000018
        },
        {
          "name": "G#4",
          "midi": 68,
          "time": 197.63493750000077,
          "velocity": 0.5039370078740157,
          "duration": 0.4054050000000018
        },
        {
          "name": "G#4",
          "midi": 68,
          "time": 198.04034250000078,
          "velocity": 0.5039370078740157,
          "duration": 0.4054050000000018
        },
        {
          "name": "A#4",
          "midi": 70,
          "time": 198.85115250000078,
          "velocity": 0.5039370078740157,
          "duration": 0.4054050000000018
        },
        {
          "name": "G#4",
          "midi": 68,
          "time": 199.25655750000078,
          "velocity": 0.5039370078740157,
          "duration": 0.4054050000000018
        },
        {
          "name": "G#4",
          "midi": 68,
          "time": 199.25655750000078,
          "velocity": 0.5039370078740157,
          "duration": 0.4054050000000018
        },
        {
          "name": "A#4",
          "midi": 70,
          "time": 199.66196250000078,
          "velocity": 0.5039370078740157,
          "duration": 0.4054050000000018
        },
        {
          "name": "G#4",
          "midi": 68,
          "time": 200.4727725000008,
          "velocity": 0.5039370078740157,
          "duration": 0.4054050000000018
        },
        {
          "name": "F#4",
          "midi": 66,
          "time": 200.8781775000008,
          "velocity": 0.5039370078740157,
          "duration": 0.4054050000000018
        },
        {
          "name": "G#4",
          "midi": 68,
          "time": 201.2835825000008,
          "velocity": 0.5039370078740157,
          "duration": 0.4054050000000018
        },
        {
          "name": "A#4",
          "midi": 70,
          "time": 201.6889875000008,
          "velocity": 0.5039370078740157,
          "duration": 0.4054050000000018
        },
        {
          "name": "E4",
          "midi": 64,
          "time": 202.0943925000008,
          "velocity": 0.5039370078740157,
          "duration": 0.4054050000000018
        },
        {
          "name": "F#4",
          "midi": 66,
          "time": 202.4997975000008,
          "velocity": 0.5039370078740157,
          "duration": 0.4054050000000018
        },
        {
          "name": "F#4",
          "midi": 66,
          "time": 202.4997975000008,
          "velocity": 0.5039370078740157,
          "duration": 0.4054050000000018
        },
        {
          "name": "G#4",
          "midi": 68,
          "time": 202.9052025000008,
          "velocity": 0.5039370078740157,
          "duration": 0.4054050000000018
        },
        {
          "name": "A#4",
          "midi": 70,
          "time": 203.3106075000008,
          "velocity": 0.5039370078740157,
          "duration": 0.4054050000000018
        },
        {
          "name": "G#4",
          "midi": 68,
          "time": 203.7160125000008,
          "velocity": 0.5039370078740157,
          "duration": 0.4054050000000018
        },
        {
          "name": "F#4",
          "midi": 66,
          "time": 204.1214175000008,
          "velocity": 0.5039370078740157,
          "duration": 0.4054050000000018
        },
        {
          "name": "E4",
          "midi": 64,
          "time": 205.3376325000008,
          "velocity": 0.5039370078740157,
          "duration": 0.4054050000000018
        },
        {
          "name": "E4",
          "midi": 64,
          "time": 205.3376325000008,
          "velocity": 0.5039370078740157,
          "duration": 0.4054050000000018
        },
        {
          "name": "E4",
          "midi": 64,
          "time": 205.7430375000008,
          "velocity": 0.5039370078740157,
          "duration": 0.4054050000000018
        },
        {
          "name": "E4",
          "midi": 64,
          "time": 206.1484425000008,
          "velocity": 0.5039370078740157,
          "duration": 0.4054050000000018
        },
        {
          "name": "F#4",
          "midi": 66,
          "time": 206.5538475000008,
          "velocity": 0.5039370078740157,
          "duration": 0.4054050000000018
        },
        {
          "name": "F#4",
          "midi": 66,
          "time": 206.95925250000082,
          "velocity": 0.5039370078740157,
          "duration": 0.4054050000000018
        },
        {
          "name": "F#4",
          "midi": 66,
          "time": 206.95925250000082,
          "velocity": 0.5039370078740157,
          "duration": 0.4054050000000018
        },
        {
          "name": "F#4",
          "midi": 66,
          "time": 207.36465750000082,
          "velocity": 0.5039370078740157,
          "duration": 0.4054050000000018
        },
        {
          "name": "G#4",
          "midi": 68,
          "time": 207.77006250000082,
          "velocity": 0.5039370078740157,
          "duration": 0.4054050000000018
        },
        {
          "name": "G#4",
          "midi": 68,
          "time": 208.58087250000082,
          "velocity": 0.5039370078740157,
          "duration": 0.4054050000000018
        },
        {
          "name": "G#4",
          "midi": 68,
          "time": 208.58087250000082,
          "velocity": 0.5039370078740157,
          "duration": 0.4054050000000018
        },
        {
          "name": "G#4",
          "midi": 68,
          "time": 208.98627750000082,
          "velocity": 0.5039370078740157,
          "duration": 0.4054050000000018
        },
        {
          "name": "A#4",
          "midi": 70,
          "time": 209.39168250000083,
          "velocity": 0.5039370078740157,
          "duration": 0.4054050000000018
        },
        {
          "name": "A#4",
          "midi": 70,
          "time": 209.79708750000083,
          "velocity": 0.5039370078740157,
          "duration": 0.4054050000000018
        },
        {
          "name": "A#4",
          "midi": 70,
          "time": 209.79708750000083,
          "velocity": 0.5039370078740157,
          "duration": 0.4054050000000018
        },
        {
          "name": "G#4",
          "midi": 68,
          "time": 210.20249250000083,
          "velocity": 0.5039370078740157,
          "duration": 0.4054050000000018
        },
        {
          "name": "F#4",
          "midi": 66,
          "time": 210.60789750000083,
          "velocity": 0.5039370078740157,
          "duration": 0.4054050000000018
        },
        {
          "name": "F#4",
          "midi": 66,
          "time": 211.82411250000084,
          "velocity": 0.5039370078740157,
          "duration": 0.4054050000000018
        },
        {
          "name": "F#4",
          "midi": 66,
          "time": 212.22951750000084,
          "velocity": 0.5039370078740157,
          "duration": 0.4054050000000018
        },
        {
          "name": "E4",
          "midi": 64,
          "time": 213.04032750000084,
          "velocity": 0.5039370078740157,
          "duration": 0.4054050000000018
        },
        {
          "name": "F#4",
          "midi": 66,
          "time": 213.44573250000084,
          "velocity": 0.5039370078740157,
          "duration": 0.4054050000000018
        },
        {
          "name": "F#4",
          "midi": 66,
          "time": 213.44573250000084,
          "velocity": 0.5039370078740157,
          "duration": 0.4054050000000018
        },
        {
          "name": "F#4",
          "midi": 66,
          "time": 213.85113750000085,
          "velocity": 0.5039370078740157,
          "duration": 0.4054050000000018
        },
        {
          "name": "G#4",
          "midi": 68,
          "time": 214.25654250000085,
          "velocity": 0.5039370078740157,
          "duration": 0.4054050000000018
        },
        {
          "name": "A#4",
          "midi": 70,
          "time": 214.66194750000085,
          "velocity": 0.5039370078740157,
          "duration": 0.4054050000000018
        },
        {
          "name": "A#4",
          "midi": 70,
          "time": 215.06735250000085,
          "velocity": 0.5039370078740157,
          "duration": 0.4054050000000018
        },
        {
          "name": "G#4",
          "midi": 68,
          "time": 215.87816250000085,
          "velocity": 0.5039370078740157,
          "duration": 0.4054050000000018
        },
        {
          "name": "G#4",
          "midi": 68,
          "time": 215.87816250000085,
          "velocity": 0.5039370078740157,
          "duration": 0.4054050000000018
        },
        {
          "name": "G#4",
          "midi": 68,
          "time": 216.68897250000086,
          "velocity": 0.5039370078740157,
          "duration": 0.4054050000000018
        },
        {
          "name": "G#4",
          "midi": 68,
          "time": 217.09437750000086,
          "velocity": 0.5039370078740157,
          "duration": 0.4054050000000018
        },
        {
          "name": "G#4",
          "midi": 68,
          "time": 217.49978250000086,
          "velocity": 0.5039370078740157,
          "duration": 0.4054050000000018
        },
        {
          "name": "G#4",
          "midi": 68,
          "time": 217.90518750000086,
          "velocity": 0.5039370078740157,
          "duration": 0.4054050000000018
        },
        {
          "name": "F#4",
          "midi": 66,
          "time": 218.31059250000087,
          "velocity": 0.5039370078740157,
          "duration": 0.4054050000000018
        },
        {
          "name": "F#4",
          "midi": 66,
          "time": 218.71599750000087,
          "velocity": 0.5039370078740157,
          "duration": 0.4054050000000018
        },
        {
          "name": "F#4",
          "midi": 66,
          "time": 219.12140250000087,
          "velocity": 0.5039370078740157,
          "duration": 0.4054050000000018
        },
        {
          "name": "F#4",
          "midi": 66,
          "time": 219.52680750000087,
          "velocity": 0.5039370078740157,
          "duration": 0.4054050000000018
        },
        {
          "name": "F#4",
          "midi": 66,
          "time": 219.52680750000087,
          "velocity": 0.5039370078740157,
          "duration": 0.4054050000000018
        },
        {
          "name": "E4",
          "midi": 64,
          "time": 219.93221250000087,
          "velocity": 0.5039370078740157,
          "duration": 0.4054050000000018
        },
        {
          "name": "E4",
          "midi": 64,
          "time": 220.33761750000087,
          "velocity": 0.5039370078740157,
          "duration": 0.4054050000000018
        },
        {
          "name": "E4",
          "midi": 64,
          "time": 220.33761750000087,
          "velocity": 0.5039370078740157,
          "duration": 0.4054050000000018
        },
        {
          "name": "E4",
          "midi": 64,
          "time": 220.74302250000088,
          "velocity": 0.5039370078740157,
          "duration": 0.4054050000000018
        },
        {
          "name": "F#4",
          "midi": 66,
          "time": 221.14842750000088,
          "velocity": 0.5039370078740157,
          "duration": 0.4054050000000018
        },
        {
          "name": "F#4",
          "midi": 66,
          "time": 221.55383250000088,
          "velocity": 0.5039370078740157,
          "duration": 0.4054050000000018
        },
        {
          "name": "G#4",
          "midi": 68,
          "time": 221.95923750000088,
          "velocity": 0.5039370078740157,
          "duration": 0.4054050000000018
        },
        {
          "name": "A#4",
          "midi": 70,
          "time": 222.36464250000088,
          "velocity": 0.5039370078740157,
          "duration": 0.4054050000000018
        },
        {
          "name": "F#4",
          "midi": 66,
          "time": 222.77004750000089,
          "velocity": 0.5039370078740157,
          "duration": 0.4054050000000018
        },
        {
          "name": "F#4",
          "midi": 66,
          "time": 222.77004750000089,
          "velocity": 0.5039370078740157,
          "duration": 0.4054050000000018
        },
        {
          "name": "G#4",
          "midi": 68,
          "time": 223.1754525000009,
          "velocity": 0.5039370078740157,
          "duration": 0.4054050000000018
        },
        {
          "name": "A#4",
          "midi": 70,
          "time": 223.5808575000009,
          "velocity": 0.5039370078740157,
          "duration": 0.4054050000000018
        },
        {
          "name": "A#4",
          "midi": 70,
          "time": 223.5808575000009,
          "velocity": 0.5039370078740157,
          "duration": 0.4054050000000018
        },
        {
          "name": "A#4",
          "midi": 70,
          "time": 223.9862625000009,
          "velocity": 0.5039370078740157,
          "duration": 0.4054050000000018
        },
        {
          "name": "G#4",
          "midi": 68,
          "time": 224.3916675000009,
          "velocity": 0.5039370078740157,
          "duration": 0.4054050000000018
        }
      ],
      "controlChanges": {},
      "id": 1,
      "name": "hihat_closed01.ogg",
      "channelNumber": 0,
      "isPercussion": false
    },
    {
      "startTime": 0,
      "duration": 0,
      "length": 0,
      "notes": [],
      "controlChanges": {},
      "id": 2,
      "name": "Kicker"
    }
  ]
}